HIERARCHY
ROOT Hips
{
	OFFSET 0.0000 0.0000 0.0000
	CHANNELS 6 Xposition Yposition Zposition Zrotation Xrotation Yrotation
	JOINT Ab
	{
		OFFSET -0.0000 8.1305 -0.0000
		CHANNELS 3 Zrotation Xrotation Yrotation
		JOINT Chest
		{
			OFFSET -0.0000 26.2902 -0.0000
			CHANNELS 3 Zrotation Xrotation Yrotation
			JOINT Neck
			{
				OFFSET -0.0000 26.2902 0.0000
				CHANNELS 3 Zrotation Xrotation Yrotation
				JOINT Head
				{
					OFFSET -0.0000 10.8167 0.0000
					CHANNELS 3 Zrotation Xrotation Yrotation
					End Site
					{
						OFFSET -0.0000 16.7167 0.0000
					}
				}
			}
			JOINT LeftCollar
			{
				OFFSET -0.0000 26.2902 0.0000
				CHANNELS 3 Zrotation Xrotation Yrotation
				JOINT LeftShoulder
				{
					OFFSET 19.6667 -0.0000 0.0000
					CHANNELS 3 Zrotation Xrotation Yrotation
					JOINT LeftElbow
					{
						OFFSET 27.2190 0.0000 0.0000
						CHANNELS 3 Zrotation Xrotation Yrotation
						JOINT LeftWrist
						{
							OFFSET 30.7431 0.0000 0.0000
							CHANNELS 3 Zrotation Xrotation Yrotation
							End Site
							{
								OFFSET 0.0000 -14.7500 0.0000
							}
						}
					}
				}
			}
			JOINT RightCollar
			{
				OFFSET -0.0000 26.2902 0.0000
				CHANNELS 3 Zrotation Xrotation Yrotation
				JOINT RightShoulder
				{
					OFFSET -19.6667 0.0000 0.0000
					CHANNELS 3 Zrotation Xrotation Yrotation
					JOINT RightElbow
					{
						OFFSET -27.2190 0.0000 0.0000
						CHANNELS 3 Zrotation Xrotation Yrotation
						JOINT RightWrist
						{
							OFFSET -30.7431 0.0000 0.0000
							CHANNELS 3 Zrotation Xrotation Yrotation
							End Site
							{
								OFFSET -0.0000 -14.7500 0.0000
							}
						}
					}
				}
			}
		}
	}
	JOINT LeftHip
	{
		OFFSET 11.8000 0.0000 0.0000
		CHANNELS 3 Zrotation Xrotation Yrotation
		JOINT LeftKnee
		{
			OFFSET -0.0000 -39.7832 0.0000
			CHANNELS 3 Zrotation Xrotation Yrotation
			JOINT LeftAnkle
			{
				OFFSET -0.0000 -41.7317 0.0000
				CHANNELS 3 Zrotation Xrotation Yrotation
				End Site
				{
					OFFSET -0.0000 -4.9167 16.7167
				}
			}
		}
	}
	JOINT RightHip
	{
		OFFSET -11.8000 0.0000 0.0000
		CHANNELS 3 Zrotation Xrotation Yrotation
		JOINT RightKnee
		{
			OFFSET -0.0000 -39.7832 0.0000
			CHANNELS 3 Zrotation Xrotation Yrotation
			JOINT RightAnkle
			{
				OFFSET -0.0000 -41.7317 0.0000
				CHANNELS 3 Zrotation Xrotation Yrotation
				End Site
				{
					OFFSET -0.0000 -4.9167 16.7167
				}
			}
		}
	}
}
MOTION
Frames: 16
Frame Time: 0.010000
-18.9166 97.0231 176.5863 358.4684 356.7576 180.5196 357.8863 348.0790 0.0276 2.7790 9.7392 0.0103 359.4990 358.8745 0.8714 354.2661 2.8656 1.0191 339.5472 357.3289 14.8457 316.5373 58.0582 340.8288 11.9991 356.6390 328.6025 88.5260 357.4874 349.9231 27.6111 355.8463 343.2315 46.7471 41.5842 0.6558 339.8170 354.2076 31.8885 270.0274 354.8985 9.6922 355.9865 2.4169 359.9349 357.9809 6.5844 4.9949 354.8334 351.8038 13.7448 358.7242 5.5874 11.6088 6.1775 5.1929 8.7360 348.7439 344.3449 311.6542 
-18.9286 97.0168 176.5713 358.4691 356.7288 180.5238 357.8997 348.0769 0.0318 2.7806 9.7573 0.0048 359.4756 358.8520 0.8818 354.2773 2.8852 1.0313 339.5625 357.3052 14.8597 316.5048 58.1046 340.8238 12.0552 356.5993 328.6194 88.6406 357.4841 350.0227 27.6096 355.8661 343.2187 46.7104 41.6081 0.7056 339.8455 354.1891 31.8696 270.1120 354.9014 9.5397 355.9805 2.3778 359.9265 357.9724 6.6229 4.9968 354.8969 351.8096 13.7529 358.7173 5.5615 11.5794 6.1782 5.2105 8.7412 348.7432 344.2901 311.6458 
-18.9453 97.0122 176.5483 358.4688 356.7143 180.5327 357.9080 348.0848 0.0305 2.7771 9.7713 0.0100 359.5329 358.8210 0.8819 354.2031 2.9265 1.0321 339.5697 357.3277 14.8555 316.4751 58.0826 340.8418 11.9784 356.6069 328.5891 88.8144 357.5291 350.0504 27.5922 355.8401 343.2167 46.7470 41.6203 0.6951 339.7724 354.1868 31.8772 270.1713 354.8731 9.4676 355.9689 2.3686 359.8924 357.9666 6.6451 4.9825 354.7628 351.7033 13.9884 358.7085 5.5629 11.5640 6.1769 5.2103 8.7124 348.7140 344.3171 311.6977 
-18.9591 97.0062 176.5263 358.4656 356.6919 180.5485 357.8965 348.0845 0.0338 2.7978 9.7908 0.0094 359.5561 358.7875 0.8810 354.1579 2.9603 1.0338 339.5917 357.3141 14.8488 316.3862 58.1157 340.8857 12.0751 356.5825 328.6021 88.7124 357.4872 350.0594 27.5848 355.8739 343.2083 46.7449 41.5934 0.7040 339.8457 354.1914 31.8913 270.1455 354.8761 9.5418 355.9577 2.3316 359.8530 357.9608 6.7024 4.9801 354.7508 351.6449 14.0013 358.6930 5.5537 11.5609 6.1856 5.2234 8.7595 348.6979 344.3239 311.6441 
-18.9727 97.0012 176.5026 358.4658 356.6695 180.5501 357.9043 348.0845 0.0343 2.7930 9.8030 0.0142 359.5679 358.7673 0.8859 354.1450 2.9940 1.0415 339.5984 357.3337 14.8370 316.3455 58.0971 340.9359 12.0269 356.5903 328.5714 88.7744 357.5150 350.0583 27.5831 355.8528 343.2017 46.7625 41.6398 0.7103 339.7138 354.1392 31.9192 270.7748 354.6741 8.6239 355.9500 2.3020 359.8335 357.9551 6.7503 4.9625 354.7537 351.6111 14.0340 358.6864 5.5417 11.5393 6.1838 5.2344 8.7554 348.6592 344.2923 311.6428 
-18.9919 96.9982 176.4802 358.4561 356.6395 180.5635 357.9037 348.0864 0.0355 2.7848 9.8001 0.0088 359.5901 358.7613 0.8899 354.1304 3.0147 1.0470 339.5991 357.3169 14.8447 316.3531 58.1232 340.9348 12.0684 356.5785 328.5833 88.6991 357.4945 350.0307 27.5696 355.8428 343.1980 46.7984 41.6861 0.6907 339.6940 354.1461 31.9074 270.7491 354.7019 8.5859 355.9268 2.2662 359.7795 357.9491 6.7911 4.9781 354.7710 351.5671 14.0494 358.6627 5.5223 11.4814 6.1923 5.2535 8.7741 348.6986 344.2487 311.6518 
-19.0055 96.9924 176.4627 358.4710 356.6031 180.5766 357.9036 348.0947 0.0420 2.8185 9.7938 0.0150 359.5791 358.7340 0.8820 354.1471 3.0467 1.0417 339.5857 357.3293 14.8255 316.3165 58.1122 340.9846 12.0283 356.5898 328.5583 88.7659 357.5214 350.0447 27.5580 355.8659 343.1802 46.7982 41.6761 0.7006 339.7223 354.1457 31.9131 270.7418 354.7015 8.6547 355.9364 2.2097 359.7521 357.9374 6.8528 4.9461 354.7453 351.4917 14.0704 358.6691 5.4894 11.4856 6.1954 5.2707 8.7727 348.7392 344.1962 311.6337 
-19.0231 96.9882 176.4323 358.4674 356.5917 180.5701 357.9014 348.1214 0.0558 2.8329 9.7750 0.0308 359.5655 358.7616 0.8743 354.1599 3.0353 1.0315 339.5870 357.3128 14.8166 316.2586 58.1492 341.0454 12.0923 356.5770 328.5644 88.7837 357.5022 350.0944 27.5419 355.8418 343.1655 46.8250 41.7372 0.6910 339.6568 354.1498 31.8850 270.6532 354.7037 8.6784 355.9220 2.2039 359.7308 357.9312 6.8841 4.9426 354.7595 351.4458 14.0939 358.6488 5.5059 11.5514 6.2085 5.2438 8.6976 348.7459 344.1722 311.6431 
-19.0412 96.9841 176.4062 358.4680 356.5636 180.5680 357.9212 348.1165 0.0616 2.8136 9.7970 0.0345 359.5863 358.7375 0.8777 354.1547 3.0492 1.0371 339.5850 357.3236 14.8001 316.2679 58.1105 341.0653 12.0308 356.5859 328.5513 88.7721 357.4880 350.0252 27.5525 355.8518 343.1579 46.8091 41.7404 0.7068 339.7277 354.1622 31.8834 270.5014 354.7420 8.7956 355.9170 2.1721 359.6756 357.9067 6.9334 4.9364 354.8261 351.4010 14.1402 358.6371 5.4845 11.5345 6.2093 5.2694 8.7196 348.7084 344.1723 311.6479 
-19.0653 96.9804 176.3797 358.4614 356.5311 180.5675 357.9257 348.1094 0.0708 2.8199 9.8163 0.0437 359.5449 358.7008 0.8725 354.1928 3.0839 1.0329 339.5882 357.3250 14.7947 316.2196 58.1044 341.0966 12.0672 356.5817 328.5461 88.7192 357.4797 350.0148 27.5545 355.8352 343.1620 46.7738 41.7572 0.7277 339.7276 354.1556 31.8800 270.4834 354.7492 8.8380 355.8900 2.1246 359.6410 357.9065 6.9975 4.9454 354.8549 351.3578 14.1646 358.6054 5.4641 11.5308 6.2210 5.2817 8.7389 348.6449 344.1882 311.6394 
-19.0910 96.9761 176.3464 358.4489 356.5111 180.5656 357.9395 348.1132 0.0747 2.7958 9.8222 0.0465 359.5213 358.7079 0.8709 354.2328 3.0888 1.0329 339.5935 357.3235 14.8135 316.2604 58.1182 341.0501 12.0604 356.5978 328.5622 88.7358 357.4933 350.0491 27.5691 355.8509 343.2101 46.8080 41.6892 0.6536 339.8340 354.1859 31.8584 269.9593 354.8963 9.7857 355.8561 2.0966 359.5797 357.9038 7.0590 4.9338 354.8345 351.2745 14.2233 358.5729 5.4589 11.5033 6.2264 5.3001 8.7557 348.6468 344.1427 311.6319 
-19.1148 96.9697 176.3008 358.4468 356.5045 180.5752 357.9611 348.1100 0.0746 2.7684 9.8490 0.0461 359.5145 358.7169 0.8737 354.2529 3.0955 1.0343 339.6033 357.3071 14.7991 316.2053 58.0895 341.1288 12.0696 356.6092 328.5554 88.7367 357.4962 350.0619 27.5619 355.8437 343.2070 46.8400 41.7362 0.6720 339.7760 354.1798 31.8124 270.0117 354.8790 9.7600 355.8402 2.0898 359.5126 357.8857 7.1191 4.9876 354.9148 351.2382 14.2284 358.5543 5.4853 11.4843 6.2307 5.3016 8.7568 348.6841 344.0837 311.6344 
-19.1397 96.9636 176.2673 358.4422 356.4780 180.5821 357.9939 348.0972 0.0727 2.7185 9.8862 0.0465 359.5528 358.6749 0.8695 354.1995 3.1431 1.0321 339.6176 357.3214 14.7965 316.1733 58.0051 341.1738 12.0061 356.6244 328.5300 88.7961 357.4845 350.0697 27.5743 355.8462 343.2146 46.8533 41.7766 0.6859 339.7644 354.1976 31.7906 269.9657 354.8585 9.7110 355.8177 2.0531 359.4660 357.8784 7.1823 5.0034 354.9650 351.1916 14.2529 358.5281 5.4692 11.4613 6.2436 5.3342 8.7904 348.7984 343.9535 311.6090 
-19.1641 96.9569 176.2325 358.4513 356.4429 180.6060 358.0077 348.0897 0.0668 2.7165 9.9035 0.0410 359.5957 358.6431 0.8740 354.1592 3.1693 1.0394 339.6397 357.3022 14.8143 316.1203 58.0070 341.1963 12.0647 356.6052 328.5425 88.7026 357.5002 349.9875 27.5625 355.8370 343.2088 46.8708 41.8301 0.6977 339.7365 354.1607 31.7790 270.0031 354.8768 9.7301 355.8154 1.9854 359.3504 357.8551 7.2857 5.0442 354.9610 351.1154 14.2836 358.5195 5.4592 11.4709 6.2516 5.3377 8.7690 348.6942 343.9908 311.5969 
-19.1896 96.9513 176.1908 358.4462 356.4206 180.6166 357.9686 348.1093 0.0891 2.7861 9.8839 0.0577 359.5493 358.6478 0.8679 354.1897 3.1762 1.0356 339.6182 357.3252 14.8163 316.0548 57.9870 341.2588 11.9914 356.6083 328.5259 88.7316 357.5341 349.9504 27.5457 355.8560 343.2056 46.8617 41.7936 0.6797 339.7747 354.1812 31.8106 269.9918 354.8591 9.7995 355.7953 1.9670 359.2832 357.8418 7.3319 5.0688 354.9830 351.0693 14.3139 358.4986 5.4535 11.4574 6.2579 5.3642 8.7556 348.7004 343.9280 311.5934 
-19.2197 96.9459 176.1525 358.4440 356.3893 180.6246 357.9713 348.1162 0.0949 2.7941 9.8837 0.0660 359.5308 358.6067 0.8484 354.2337 3.2104 1.0141 339.6295 357.3055 14.8189 316.0718 58.0283 341.2016 12.0490 356.5828 328.5778 88.6912 357.4456 349.8950 27.5422 355.8385 343.1724 46.8427 41.7988 0.7160 339.7519 354.1677 31.8107 269.9982 354.8752 9.7612 355.7717 1.9202 359.1955 357.8276 7.4193 5.0597 355.0312 350.9887 14.3885 358.4739 5.4314 11.3812 6.2637 5.4066 8.7956 348.7252 343.8613 311.6104 
